<?xml version="1.0" encoding="utf-8"?>
<!-- Generator: Adobe Illustrator 22.1.0, SVG Export Plug-In . SVG Version: 6.00 Build 0)  -->
<svg version="1.1" id="Layer_1" xmlns="http://www.w3.org/2000/svg" xmlns:xlink="http://www.w3.org/1999/xlink" x="0px" y="0px"
	 viewBox="0 0 91.1 20" style="enable-background:new 0 0 91.1 20;" xml:space="preserve">
<style type="text/css">
	.st0{fill:#231F20;}
	.st1{fill:#E92700;}
	.st2{fill:#DF1A23;}
	.st3{fill:#DE2126;}
	.st4{fill:url(#SVGID_1_);}
	.st5{font-family:'MyriadPro-Regular';}
	.st6{font-size:18.5527px;}
	.st7{fill:#E92700;stroke:#000000;stroke-width:0.25;stroke-miterlimit:10;}
</style>
<path class="st0" d="M10.6,6.5c0,0,0.9-1.5,2.3-1.5c0,0,1.8-0.1,2-0.4c0,0,0.5-0.3,0.5-0.6c0,0,0,0.9-1.8,1.1c0,0-1.3,0-2.1,0.7
	C10.8,6.5,10.5,6.6,10.6,6.5z"/>
<path class="st0" d="M10.8,7.2c0,0,0.8-1.6,2.9-1.7c0,0,1.2,0,1.5-0.2c0,0-0.4,0.3-1.1,0.3c0,0-1,0.1-1.4,0.3
	c-0.4,0.2-1.2,0.6-1.6,1.3c0,0,1.6,1,3.1-0.6l0.9-1.2c0,0-0.9,1.5-1.4,1.8c0,0-1,0.8-2.1,0.4l-1-0.3V7.2z"/>
<path class="st0" d="M9.5,6.5c0,0-0.9-1.5-2.3-1.5c0,0-1.8-0.1-2-0.4c0,0-0.5-0.3-0.5-0.6c0,0,0,0.9,1.8,1.1c0,0,1.3,0,2.1,0.7
	S9.6,6.6,9.5,6.5z"/>
<path class="st0" d="M9.4,7.2c0,0-0.8-1.6-2.9-1.7c0,0-1.2,0-1.5-0.2c0,0,0.4,0.3,1.1,0.3c0,0,1,0.1,1.4,0.3C7.8,6.1,8.6,6.5,9,7.2
	c0,0-1.6,1-3.1-0.6L4.9,5.4c0,0,0.9,1.5,1.4,1.8c0,0,1,0.8,2.1,0.4l1-0.3V7.2z"/>
<path class="st1" d="M10,0.8c-2.8,2.8,0,4,0,4C13,3.4,10,0.8,10,0.8z M10.1,4.6c-2.5-1.2,0-3.5,0-3.5C12.5,3.6,10.1,4.6,10.1,4.6z"
	/>
<circle class="st2" cx="10.1" cy="5.8" r="0.2"/>
<path class="st0" d="M12.5,6.2c-0.4,0-0.7,0.3-0.7,0.7c0,0.4,0.3,0.7,0.7,0.7c0.4,0,0.7-0.3,0.7-0.7C13.2,6.5,12.9,6.2,12.5,6.2z
	 M12.7,6.7C12.6,6.7,12.6,6.7,12.7,6.7c-0.1-0.1-0.1-0.2,0-0.2C12.7,6.6,12.8,6.6,12.7,6.7C12.8,6.7,12.7,6.7,12.7,6.7z"/>
<path class="st0" d="M7.6,6.2C7.3,6.2,7,6.5,7,6.9c0,0.4,0.3,0.7,0.7,0.7c0.4,0,0.7-0.3,0.7-0.7C8.3,6.5,8,6.2,7.6,6.2z M7.5,6.7
	C7.5,6.7,7.4,6.7,7.5,6.7c-0.1-0.1-0.1-0.2,0-0.2C7.6,6.5,7.6,6.6,7.5,6.7C7.6,6.7,7.6,6.7,7.5,6.7z"/>
<path class="st2" d="M8.3,10.5c0,0,0.1,0,0.2,0.1s0.1,0.2,0.1,0.2s0.3,0.1,0.5,0c0.2-0.1,0.5-0.1,0.9,0.2c0,0,0.3-0.3,0.6-0.3
	c0,0,0.1,0,0.3,0.1c0,0,0.4,0,0.5,0c0,0,0-0.1,0.1-0.2c0,0,0.2-0.1,0.2,0c0,0,0,0.1,0,0.2c0,0-0.1,0.1-0.1,0.2c0,0,0,0,0,0
	s-0.3,0.6-0.6,0.7c0,0-1,0.9-2.2-0.1c0,0-0.4-0.4-0.5-0.6c0,0,0-0.1-0.1-0.1C8.3,10.7,8.3,10.6,8.3,10.5z"/>
<g>
	<path d="M9,9.1C8.9,9.3,8.9,9.5,9,9.6l0,0c0.1,0.1,0.3,0.1,0.4,0l0.1-0.1l0.1,0.1c0.1,0.2,0.3,0.4,0.5,0.4c0.2,0,0.4-0.2,0.5-0.4
		l0.1-0.1l0.1,0.1c0.1,0.1,0.3,0.2,0.4,0.1l0,0l0,0c0.1-0.1,0.2-0.3,0.1-0.5c0.1,0.2,0.2,0.4,0,0.6l0,0c-0.2,0.2-0.4,0.1-0.6,0
		l0.1,0c-0.1,0.2-0.3,0.5-0.7,0.5c-0.3,0-0.6-0.2-0.7-0.5l0.1,0C9.5,9.8,9.4,9.8,9.2,9.8C9.1,9.8,9,9.8,8.9,9.7l0,0
		C8.8,9.5,8.9,9.2,9,9.1z"/>
</g>
<path class="st3" d="M8.6,3.4c0,0,0.1,1.4,1.4,1.5c0,0,1.3,0,1.4-1.5c0,0,0.1,0.8-0.6,1.3c0,0-0.9,0.7-1.8-0.1
	C9.1,4.7,8.6,4.3,8.6,3.4z"/>
<path class="st1" d="M10.1,2.1C9.6,2.1,9.1,2.5,9.1,3s0.4,0.9,0.9,0.9S11,3.5,11,3S10.6,2.1,10.1,2.1z M9.8,2.9
	c-0.1,0-0.1-0.1-0.1-0.1s0.1-0.1,0.1-0.1c0.1,0,0.1,0.1,0.1,0.1S9.9,2.9,9.8,2.9z"/>
<linearGradient id="SVGID_1_" gradientUnits="userSpaceOnUse" x1="10.7312" y1="15.8994" x2="10.7312" y2="9.6091">
	<stop  offset="0" style="stop-color:#D40000"/>
	<stop  offset="5.299802e-02" style="stop-color:#DD2F09"/>
	<stop  offset="0.113" style="stop-color:#E65C12"/>
	<stop  offset="0.1754" style="stop-color:#EE8419"/>
	<stop  offset="0.2393" style="stop-color:#F4A41F"/>
	<stop  offset="0.3052" style="stop-color:#F9BD24"/>
	<stop  offset="0.3741" style="stop-color:#FCCE27"/>
	<stop  offset="0.4475" style="stop-color:#FED929"/>
	<stop  offset="0.5338" style="stop-color:#FFDC2A"/>
	<stop  offset="0.582" style="stop-color:#FED629"/>
	<stop  offset="0.6457" style="stop-color:#FDC526"/>
	<stop  offset="0.7183" style="stop-color:#FAAA20"/>
	<stop  offset="0.7973" style="stop-color:#F68319"/>
	<stop  offset="0.8815" style="stop-color:#F15210"/>
	<stop  offset="0.9689" style="stop-color:#EB1704"/>
	<stop  offset="1" style="stop-color:#E90000"/>
</linearGradient>
<path class="st4" d="M17.5,10.5C16.9,10,16,9.6,15,9.6c-0.5,0-0.9,0-1.2,0c-0.1,0-0.2,0-0.3,0h-0.8h-0.2l-2.4,5.1H10L7.7,9.6H7.5
	H6.7h0v4.5c0,0.4,0,0.7-0.2,0.9c-0.2,0.2-0.6,0.2-0.9,0.2c-0.3,0-2.3,0-2.3,0v0.7c0,0,1.8,0,2.4,0c0.6,0,1.2,0,1.5-0.3
	c0.4-0.3,0.4-0.9,0.4-1.5v-3h0l2.2,4.7h0.7l2.2-4.7h0v4.7h0c0.2,0,0.3,0,0.4,0s0.2,0,0.4,0H15c1,0,1.8-0.3,2.4-0.8
	c0.6-0.5,0.9-1.3,0.9-2.3C18.2,11.7,18,11.1,17.5,10.5z M16.7,14.5c-0.4,0.4-1,0.6-1.8,0.6h-1.4c0-0.5,0-0.9,0-1.2
	c0-0.4,0-0.8,0-1.2c0-0.4,0-0.8,0-1.2c0-0.4,0-0.8,0-1.2h1.4c0.8,0,1.4,0.2,1.8,0.6c0.4,0.4,0.6,1,0.6,1.8
	C17.4,13.5,17.1,14.1,16.7,14.5z"/>
<text transform="matrix(1 0 0 1 18.8164 16.1943)" class="st1 st5 st6">FINANCE</text>
<line class="st7" x1="0.8" y1="18" x2="89.2" y2="17.5"/>
<line class="st7" x1="1" y1="19" x2="89.3" y2="18.5"/>
</svg>
